<svg width="108" height="98" viewBox="0 0 108 98" fill="none" xmlns="http://www.w3.org/2000/svg">
<g clip-path="url(#clip0_3400_36)">
<path d="M106.807 50.3523H93.8548C93.1948 50.3523 92.6614 49.8672 92.6614 49.2694C92.6614 48.6717 93.1948 48.1865 93.8548 48.1865H106.807C107.467 48.1865 108 48.6717 108 49.2694C108 49.8672 107.467 50.3523 106.807 50.3523Z" fill="#FFBA49"/>
<path d="M14.7378 50.3523H1.78691C1.12815 50.3523 0.593506 49.8672 0.593506 49.2694C0.593506 48.6717 1.12815 48.1865 1.78691 48.1865H14.7378C15.3965 48.1865 15.9312 48.6717 15.9312 49.2694C15.9312 49.8672 15.3965 50.3523 14.7378 50.3523Z" fill="#FFBA49"/>
<path d="M54.2969 14.4561C53.6382 14.4561 53.1035 13.9709 53.1035 13.3732V1.62148C53.1035 1.02372 53.6382 0.538574 54.2969 0.538574C54.9557 0.538574 55.4903 1.02372 55.4903 1.62148V13.3732C55.4903 13.9709 54.9557 14.4561 54.2969 14.4561Z" fill="#FFBA49"/>
<path d="M82.2691 24.9699C81.9636 24.9699 81.6581 24.8638 81.4254 24.6526C80.9588 24.2303 80.9588 23.5448 81.4254 23.1214L90.5824 14.8112C91.049 14.3878 91.8033 14.3878 92.2699 14.8112C92.7365 15.2335 92.7365 15.919 92.2699 16.3424L83.1129 24.6526C82.8802 24.8638 82.5747 24.9699 82.2691 24.9699Z" fill="#FFBA49"/>
<path d="M26.3246 24.9699C26.0191 24.9699 25.7135 24.8638 25.4808 24.6526L16.3226 16.3424C15.856 15.919 15.856 15.2346 16.3226 14.8112C16.7892 14.3878 17.5435 14.3878 18.0101 14.8112L27.1683 23.1214C27.6349 23.5448 27.6349 24.2292 27.1683 24.6526C26.9356 24.8638 26.6301 24.9699 26.3246 24.9699Z" fill="#FFBA49"/>
<path d="M54.2969 75.3013C38.4783 75.3013 25.6074 63.6232 25.6074 49.2693C25.6074 34.9155 38.4771 23.2363 54.2969 23.2363C70.1155 23.2363 82.9852 34.9144 82.9852 49.2693C82.9852 63.6232 70.1155 75.3013 54.2969 75.3013ZM54.2969 25.4021C39.7935 25.4021 27.9942 36.1088 27.9942 49.2693C27.9942 62.4288 39.7935 73.1355 54.2969 73.1355C68.7992 73.1355 80.5984 62.4288 80.5984 49.2693C80.5984 36.1088 68.7992 25.4021 54.2969 25.4021Z" fill="#FFBA49"/>
<path d="M54.2969 98.0001C53.6382 98.0001 53.1035 97.5161 53.1035 96.9172V85.1644C53.1035 84.5656 53.6382 84.0815 54.2969 84.0815C54.9557 84.0815 55.4903 84.5656 55.4903 85.1644V96.9172C55.4903 97.5161 54.9557 98.0001 54.2969 98.0001Z" fill="#FFBA49"/>
<path d="M91.4262 84.0436C91.1206 84.0436 90.8151 83.9374 90.5824 83.7263L81.4254 75.4171C80.9588 74.9937 80.9588 74.3093 81.4254 73.8859C81.892 73.4625 82.6463 73.4625 83.1129 73.8859L92.2699 82.195C92.7365 82.6185 92.7365 83.3029 92.2699 83.7263C92.0372 83.9385 91.7317 84.0436 91.4262 84.0436Z" fill="#FFBA49"/>
<path d="M17.1664 84.0436C16.8608 84.0436 16.5553 83.9374 16.3226 83.7263C15.856 83.3029 15.856 82.6185 16.3226 82.195L25.4808 73.8859C25.9474 73.4625 26.7017 73.4625 27.1683 73.8859C27.6349 74.3093 27.6349 74.9937 27.1683 75.4171L18.0101 83.7263C17.7774 83.9385 17.4719 84.0436 17.1664 84.0436Z" fill="#FFBA49"/>
<path d="M49.2761 66.5959C49.1221 66.5959 48.9646 66.5688 48.8154 66.5114C48.3071 66.3175 48.0111 65.8346 48.0982 65.3408L50.5459 51.5565H45.166C44.7161 51.5565 44.3044 51.3269 44.1003 50.962C43.8974 50.597 43.938 50.1606 44.2041 49.8314L58.3555 32.3847C58.6825 31.9819 59.2733 31.8379 59.7781 32.0274C60.2865 32.2212 60.5824 32.7042 60.4953 33.1991L58.0464 46.9845H63.4275C63.8774 46.9845 64.2904 47.214 64.4932 47.579C64.6961 47.9439 64.6567 48.3814 64.3882 48.7095L50.238 66.1551C50.0077 66.4388 49.6472 66.5959 49.2761 66.5959ZM47.5254 49.3896H51.9469C52.2966 49.3896 52.6284 49.5282 52.8551 49.7708C53.0819 50.0133 53.1797 50.3317 53.1248 50.6458L51.2393 61.2669L61.067 49.1503H56.6466C56.2969 49.1503 55.9651 49.0116 55.7372 48.7691C55.5117 48.5276 55.4126 48.2081 55.4675 47.8941L57.3543 37.273L47.5254 49.3896Z" fill="#FFBA49"/>
</g>
<defs>
<clipPath id="clip0_3400_36">
<rect width="108" height="98" fill="white"/>
</clipPath>
</defs>
</svg>
